<svg version="1.1" id="Layer_1" xmlns="http://www.w3.org/2000/svg" xmlns:xlink="http://www.w3.org/1999/xlink" x="0px" y="0px"
	 width="100%" viewBox="0 0 1024 1024" enable-background="new 0 0 1024 1024" xml:space="preserve">
<path fill="#000000" opacity="1.000000" stroke="none" 
	d="
M199.877350,504.892334 
	C207.287064,495.012665 214.503983,485.431549 221.668839,475.811676 
	C226.932800,468.743927 231.904404,468.594177 237.281342,475.415375 
	C253.885056,496.479279 270.494690,517.538513 287.086121,538.612061 
	C288.218475,540.050293 289.271942,541.557617 290.272461,543.091370 
	C293.970642,548.760010 291.537994,553.862000 284.744812,554.149231 
	C278.424896,554.416443 272.082733,554.125061 265.750885,554.163086 
	C263.632660,554.175781 261.421661,553.736267 258.366699,555.535461 
	C268.247589,615.739441 296.472107,666.026855 342.197815,706.483887 
	C387.772064,746.806885 441.007324,769.085388 501.918976,771.790527 
	C502.915039,774.360352 501.122894,775.434509 499.991425,776.782532 
	C494.960876,782.775818 490.111542,788.937195 484.808319,794.679138 
	C481.926514,797.799377 482.526581,799.917603 485.046783,802.704102 
	C490.073822,808.262390 494.890808,814.012451 499.721863,819.744568 
	C500.739044,820.951477 502.329834,821.931702 502.064392,824.156555 
	C496.716553,824.156555 491.312469,824.628662 486.012695,824.084473 
	C423.959900,817.713257 368.134705,795.652222 319.471283,756.493225 
	C268.635254,715.585938 233.142334,664.037598 214.180939,601.385925 
	C209.933228,587.350769 206.937408,573.025635 204.884216,558.523438 
	C204.388489,555.022034 202.860977,554.086792 199.680176,554.141357 
	C192.016541,554.273010 184.349380,554.259033 176.684189,554.214111 
	C173.456085,554.195190 170.337479,553.824829 168.633575,550.383728 
	C166.946442,546.976562 169.024887,544.591858 170.823685,542.260132 
	C180.388870,529.861389 190.040497,517.529358 199.877350,504.892334 
z"/>
<path fill="#000000" opacity="1.000000" stroke="none" 
	d="
M782.104919,554.890198 
	C765.218140,533.804199 748.561890,512.995850 731.917664,492.178009 
	C729.724915,489.435394 727.228882,486.732880 729.161926,482.786499 
	C731.039368,478.953644 734.604492,478.848755 738.170898,478.826477 
	C745.003479,478.783752 751.836731,478.697693 758.668518,478.759430 
	C762.082642,478.790253 762.977417,477.529541 762.192383,474.146332 
	C751.393188,427.605499 730.546021,386.489502 697.959656,351.188873 
	C671.990417,323.056641 641.971741,301.040588 606.741394,286.123596 
	C578.744934,274.269531 549.767395,266.700562 519.175842,266.211731 
	C516.750061,266.172974 514.161316,266.675903 511.753998,264.858429 
	C512.033997,261.796906 514.472778,260.115784 516.240601,258.045563 
	C520.564758,252.981674 524.836182,247.867493 529.314087,242.941986 
	C532.009399,239.977188 531.717163,237.581818 529.082825,234.757935 
	C523.741516,229.032303 518.574890,223.141708 513.417908,217.247681 
	C512.286621,215.954742 510.481384,214.916382 510.856781,212.590210 
	C513.467712,211.238968 516.064148,212.604126 518.623230,212.690308 
	C569.155701,214.392395 616.361328,227.843521 660.335632,252.798874 
	C701.475281,276.145660 735.171143,307.587799 762.312317,346.186005 
	C787.389648,381.849060 803.703674,421.278900 812.553101,463.871582 
	C815.632935,478.694550 815.550964,478.711914 830.783203,478.726959 
	C834.782959,478.730896 838.785461,478.638184 842.781799,478.756348 
	C848.925720,478.938019 851.776245,483.934113 848.214844,489.009888 
	C840.180786,500.460388 831.838318,511.697937 823.475586,522.913391 
	C815.509827,533.596375 807.373657,544.152588 799.284851,554.743347 
	C793.073914,562.875549 789.186768,562.956360 782.104919,554.890198 
z"/>
<path fill="#000000" opacity="1.000000" stroke="none" 
	d="
M714.010986,670.030151 
	C735.085938,640.726807 751.064758,609.333679 759.752563,574.556702 
	C762.839478,575.052124 764.053467,576.992004 765.484924,578.528137 
	C770.366760,583.766968 775.300842,588.970520 779.912292,594.442566 
	C782.344788,597.329041 784.588928,597.549316 787.600952,595.651855 
	C794.361816,591.392761 801.191833,587.243469 807.997192,583.055176 
	C809.102783,582.374756 809.988770,581.250916 811.563782,581.295410 
	C813.026733,582.521484 812.155945,583.977173 811.835876,585.345154 
	C800.017456,635.853882 776.304260,680.154907 742.038147,718.931335 
	C719.598938,744.324158 694.072632,766.042969 664.696777,783.034119 
	C638.910278,797.949219 611.644531,809.393982 582.607727,816.283813 
	C569.830750,819.315491 556.827515,821.271790 543.824524,823.143372 
	C541.415649,823.490112 539.650208,822.741821 538.065918,821.007263 
	C532.225891,814.613403 526.373352,808.230286 520.453857,801.910217 
	C518.417603,799.736145 518.213074,797.791443 520.042542,795.301636 
	C525.764465,787.514343 532.669128,780.669800 537.997070,772.567993 
	C539.380737,770.463989 541.783142,770.053406 544.152832,769.744690 
	C596.681763,762.901123 641.976501,740.649902 681.077759,705.299194 
	C692.956299,694.560120 703.968384,682.983521 714.010986,670.030151 
z"/>
<path fill="#000000" opacity="1.000000" stroke="none" 
	d="
M485.870789,228.133942 
	C498.502594,242.179550 497.306854,237.142960 487.247040,251.564667 
	C484.009766,256.205597 480.339722,260.542664 476.947479,265.078461 
	C475.674835,266.780090 474.187805,267.806915 472.025513,268.083527 
	C442.736298,271.830383 415.371155,281.579559 389.567963,295.584900 
	C337.248840,323.982513 299.078766,365.662659 274.776794,419.955841 
	C269.816650,431.037323 265.826508,442.541779 263.035645,454.411255 
	C262.626160,456.152649 262.026489,457.849335 261.523712,459.536865 
	C258.934509,459.845428 258.168182,457.853607 257.077820,456.570129 
	C252.225708,450.858765 247.469040,445.065826 242.710327,439.275696 
	C238.372269,433.997284 237.185425,433.742981 231.589066,437.355194 
	C225.710800,441.149353 219.897141,445.043732 214.014862,448.831573 
	C212.537872,449.782715 211.185394,451.240936 208.570877,450.617889 
	C209.421967,443.015503 211.848938,435.766815 214.176636,428.612061 
	C233.685577,368.646210 268.481506,319.209869 317.361176,279.519257 
	C353.026520,250.558746 393.518768,231.436005 437.886475,220.252411 
	C447.870361,217.735794 458.045441,216.012512 468.279205,214.701599 
	C471.513336,214.287308 474.013641,214.850220 476.201324,217.537537 
	C479.140930,221.148529 482.466705,224.445160 485.870789,228.133942 
z"/>
<path fill="#000000" opacity="1.000000" stroke="none" 
	d="
M537.271484,684.356323 
	C536.099304,690.569702 532.782715,695.350525 529.373291,699.855042 
	C531.347229,702.823425 534.177185,702.935303 536.658264,703.664917 
	C540.969421,704.932678 545.237732,706.183533 549.146790,708.564270 
	C556.603149,713.105408 557.652771,720.526855 557.864868,728.097473 
	C557.966370,731.723267 554.770935,732.259644 551.678589,732.251038 
	C540.357788,732.219543 529.036804,732.273376 517.715881,732.272095 
	C504.064178,732.270569 490.412445,732.258911 476.760803,732.224548 
	C470.725586,732.209412 469.260590,730.291260 469.969788,724.289856 
	C471.168854,714.143188 476.873779,708.027222 486.461609,705.258179 
	C489.009369,704.522461 491.639252,704.074768 494.221771,703.454712 
	C499.553253,702.174561 500.375000,700.101379 496.854156,696.124207 
	C491.937469,690.570190 490.208679,683.210449 485.870270,677.295471 
	C484.138062,674.933777 483.909485,671.434143 485.545654,668.672791 
	C487.721252,665.001160 487.638641,661.120483 487.721100,657.115601 
	C487.910889,647.897766 492.320038,641.249512 500.753937,637.586060 
	C508.340210,634.290833 516.228943,633.948792 524.148926,636.449402 
	C534.267151,639.644165 540.021729,647.545471 540.267090,658.592773 
	C540.337708,661.770264 540.763000,664.639709 542.294617,667.636230 
	C544.607422,672.161011 543.363464,676.699951 540.083801,680.573181 
	C539.138550,681.689453 537.574036,682.298767 537.271484,684.356323 
M515.304199,641.441895 
	C498.950500,642.408081 494.365265,647.144226 494.417175,663.263855 
	C494.425568,665.872070 493.911072,668.161133 492.484650,670.325317 
	C490.994110,672.586731 490.987885,674.883362 493.416290,676.413940 
	C495.940399,678.004761 496.796387,680.291199 497.351746,683.007080 
	C498.034912,686.348083 499.615021,689.473450 502.374268,691.416382 
	C509.544189,696.465149 505.871094,707.531494 497.935791,709.200439 
	C493.723083,710.086548 489.572540,711.457520 485.550201,713.013611 
	C479.911621,715.194702 477.570709,719.097900 477.895874,724.845276 
	C478.024078,724.950623 478.152679,725.148743 478.280396,725.148193 
	C501.416382,725.042297 524.553345,724.548523 547.686829,725.323914 
	C550.683228,725.424377 550.980835,723.620178 550.488281,721.382141 
	C549.433167,716.588562 545.739685,714.259827 541.629028,712.647583 
	C537.611267,711.071899 533.358643,710.101685 529.316528,708.580444 
	C521.068665,705.476318 519.552979,698.774658 525.547241,692.417175 
	C527.396484,690.455811 528.946838,688.309998 529.894104,685.776184 
	C531.281982,682.063843 532.156433,678.123962 535.613892,675.499146 
	C536.893921,674.527466 537.265869,672.557007 536.266052,671.397217 
	C532.657288,667.210693 533.876831,662.278381 533.747681,657.563110 
	C533.556580,650.587952 530.053345,645.549438 523.395752,643.281067 
	C521.047424,642.480957 518.558533,642.093445 515.304199,641.441895 
z"/>
<path fill="#000000" opacity="1.000000" stroke="none" 
	d="
M449.060181,344.000000 
	C449.027527,335.669159 448.954987,327.838257 448.970642,320.007477 
	C448.976868,316.894012 448.412750,312.960938 452.984711,312.815582 
	C457.591949,312.669128 457.312897,316.527618 457.309601,319.710297 
	C457.281433,346.870758 457.221741,374.031250 457.180206,401.191711 
	C457.170197,407.727051 457.185211,407.789307 463.858185,407.789337 
	C495.517548,407.789429 527.176880,407.751495 558.836243,407.732086 
	C560.668884,407.730957 562.502502,407.742310 564.333862,407.803558 
	C566.908813,407.889679 568.466187,409.346680 568.566589,411.813049 
	C568.670166,414.356567 566.989563,415.745911 564.544556,416.066132 
	C563.230103,416.238312 561.884216,416.204620 560.552490,416.205109 
	C525.893555,416.217651 491.234650,416.227814 456.575714,416.223511 
	C450.568176,416.222778 448.885345,414.604919 448.889130,408.484772 
	C448.902313,387.156494 448.993866,365.828247 449.060181,344.000000 
z"/>
<path fill="#000000" opacity="1.000000" stroke="none" 
	d="
M361.738037,529.789673 
	C361.727325,522.319580 361.727325,515.325439 361.727325,507.250000 
	C358.933655,512.162903 358.067383,516.775513 356.456726,521.075012 
	C355.406952,523.877197 354.420776,526.723755 353.700104,529.623474 
	C352.777985,533.333740 350.643311,534.430176 346.861511,534.478333 
	C342.763031,534.530579 341.877563,532.216797 340.973877,529.150574 
	C338.773010,521.683350 336.415497,514.262390 333.383118,506.885437 
	C333.383118,514.400208 333.241516,521.918884 333.444061,529.428162 
	C333.542267,533.069519 332.334290,534.447083 328.597137,534.426453 
	C324.943726,534.406250 323.591370,533.164307 323.639374,529.474243 
	C323.791107,517.812073 323.800110,506.144989 323.623962,494.483398 
	C323.567200,490.722443 325.010376,489.630219 328.608551,489.618011 
	C337.167572,489.588989 337.148315,489.446045 339.776886,497.376007 
	C342.225189,504.762207 344.719116,512.133301 347.665436,520.920105 
	C351.175323,510.980377 354.175018,502.399536 357.240143,493.842133 
	C358.745789,489.638580 362.534058,488.454773 369.354156,489.725586 
	C373.501404,490.498352 372.151855,493.738007 372.174774,496.086731 
	C372.283875,507.249542 372.175385,518.414490 372.144409,529.578674 
	C372.137543,532.053101 371.983246,534.452332 368.559875,534.277649 
	C365.614624,534.127441 361.732758,535.476929 361.738037,529.789673 
z"/>
<path fill="#000000" opacity="1.000000" stroke="none" 
	d="
M514.307129,341.335327 
	C517.766479,340.610229 519.289368,337.814484 521.343323,335.735504 
	C528.453491,328.539032 536.295837,322.051666 542.626953,314.207947 
	C542.103516,312.705658 540.869995,313.138550 540.005859,312.903046 
	C537.435791,312.202454 536.689148,310.453857 536.747498,308.011444 
	C536.808167,305.473175 538.462402,304.285248 540.544373,304.164703 
	C545.683228,303.867126 550.843689,303.813507 555.992676,303.878510 
	C558.101624,303.905151 559.202087,305.362518 559.325684,307.516388 
	C559.553833,311.493835 559.865173,315.466644 560.072937,319.445007 
	C560.255615,322.942719 560.025757,326.483459 555.626648,327.089386 
	C550.727966,327.764099 550.675842,323.891266 549.221130,319.532837 
	C547.096619,322.000397 545.101807,324.595520 542.823975,326.912262 
	C535.121887,334.745758 527.172180,342.341248 519.622986,350.317108 
	C516.292480,353.835876 513.587830,353.766479 510.425720,350.527039 
	C506.488220,346.493195 502.519073,342.490204 498.725159,338.638000 
	C496.051208,339.001831 494.998199,340.877228 493.628723,342.229523 
	C486.405365,349.362457 479.388336,356.701050 471.676300,363.335175 
	C469.222870,365.445709 467.039429,365.964264 464.789032,363.464783 
	C462.581024,361.012451 463.840057,358.784637 465.749359,356.908813 
	C475.128326,347.694122 484.546173,338.518799 493.975769,329.355835 
	C496.823456,326.588684 499.611176,326.907257 502.164154,329.805908 
	C505.800842,333.935120 509.697754,337.789062 514.307129,341.335327 
z"/>
<path fill="#000000" opacity="1.000000" stroke="none" 
	d="
M543.527466,402.897034 
	C540.748596,401.781555 540.902771,399.673370 540.899780,397.690918 
	C540.870728,378.746124 540.914124,359.801086 540.805603,340.856842 
	C540.786377,337.503143 542.010132,336.144043 545.383118,335.893005 
	C557.263550,335.008698 557.320496,334.979645 557.322876,346.815369 
	C557.326172,363.267639 557.331787,379.719940 557.330322,396.172211 
	C557.329712,403.079895 557.322632,403.093018 550.443604,403.120605 
	C548.285156,403.129272 546.126343,403.046661 543.527466,402.897034 
z"/>
<path fill="#000000" opacity="1.000000" stroke="none" 
	d="
M696.253235,500.375854 
	C706.465698,504.472015 706.526123,525.183777 699.663452,531.538208 
	C695.672119,535.234070 690.306396,536.174683 684.897888,533.499695 
	C682.889954,532.506592 681.630981,531.845642 679.220825,533.494629 
	C675.011597,536.374512 671.676819,534.111633 671.666443,528.908936 
	C671.641785,516.583313 671.830139,504.255219 671.627380,491.933167 
	C671.556030,487.600098 673.381470,486.645294 677.290710,486.588196 
	C681.341614,486.529083 682.631042,488.105682 682.368225,491.908691 
	C682.151733,495.041656 682.323975,498.201508 682.323975,502.018860 
	C686.904785,499.176727 691.276184,498.176727 696.253235,500.375854 
M682.239929,519.108459 
	C682.486694,522.506653 683.403198,525.577209 687.468811,525.742798 
	C691.840393,525.920715 692.872986,522.495972 693.513794,519.136353 
	C693.984070,516.671082 693.680725,514.178955 692.698608,511.802368 
	C691.777832,509.574402 690.209656,508.382629 687.759094,508.323120 
	C685.190613,508.260742 683.825745,509.802734 682.876282,511.884125 
	C681.945312,513.924866 682.274353,516.123962 682.239929,519.108459 
z"/>
<path fill="#000000" opacity="1.000000" stroke="none" 
	d="
M520.231567,530.633667 
	C516.366455,524.281616 515.822021,517.824036 517.489441,511.098541 
	C520.262329,499.914185 527.486633,496.515259 538.756409,501.761658 
	C538.756409,497.889801 538.824707,494.324646 538.739807,490.763123 
	C538.624451,485.919037 542.123047,486.869263 545.005981,486.690948 
	C547.962280,486.508118 549.570679,487.221497 549.535278,490.782288 
	C549.403076,504.087646 549.525330,517.396362 549.658569,530.702759 
	C549.684387,533.278809 548.707458,534.279053 546.173889,534.332092 
	C543.428528,534.389526 540.863892,534.222046 539.223328,531.817627 
	C529.700684,536.530334 526.373291,536.345886 520.231567,530.633667 
M528.542114,512.209534 
	C528.361511,512.846741 528.183350,513.484619 528.000000,514.121033 
	C526.818481,518.220276 527.150940,522.140381 530.445923,525.063477 
	C532.134216,526.561218 534.688904,526.424622 536.477051,524.943359 
	C539.958313,522.059387 539.989502,518.077698 539.293335,514.006836 
	C539.265625,513.844788 539.199524,513.689453 539.153992,513.530273 
	C538.500122,511.241760 537.700684,509.023254 535.018005,508.436890 
	C532.185425,507.817780 530.224426,509.103821 528.542114,512.209534 
z"/>
<path fill="#000000" opacity="1.000000" stroke="none" 
	d="
M569.764404,499.391418 
	C578.136963,498.204102 584.874329,501.122284 588.129456,507.069916 
	C591.842102,513.853577 591.178040,524.253906 586.681091,529.754517 
	C582.618103,534.724121 574.575134,536.598755 567.439575,534.239136 
	C560.087097,531.807739 556.201355,525.343750 556.525391,516.083252 
	C556.850281,506.799530 560.789490,501.708649 569.764404,499.391418 
M572.778931,508.281799 
	C567.060181,511.154114 565.431213,519.966370 569.847473,524.296143 
	C571.763916,526.174988 574.117249,526.500916 576.206177,524.952759 
	C579.507996,522.505737 580.060303,518.780701 579.441223,515.048767 
	C578.893555,511.747589 577.973877,508.344452 572.778931,508.281799 
z"/>
<path fill="#000000" opacity="1.000000" stroke="none" 
	d="
M655.323486,533.433350 
	C653.887085,531.216431 652.548523,531.636169 650.856201,532.575073 
	C649.137085,533.528748 647.243530,534.305054 645.331299,534.748657 
	C638.805847,536.262207 633.898071,533.419678 632.172729,527.325073 
	C630.538269,521.551575 633.446716,515.819092 639.247314,513.779724 
	C641.258728,513.072571 643.445129,512.858398 645.555725,512.439575 
	C647.638672,512.026367 649.726807,511.639069 652.570007,511.095612 
	C650.411560,506.452606 646.993652,507.042297 643.712891,507.809265 
	C637.466309,509.269562 637.270447,509.208954 635.592896,502.167969 
	C642.675293,498.577087 649.929504,497.431213 657.419128,500.951447 
	C662.154175,503.176941 663.027466,507.720642 663.213074,512.302551 
	C663.421570,517.447815 663.260620,522.608765 663.233643,527.762756 
	C663.197937,534.583984 662.557068,535.073730 655.323486,533.433350 
M646.550171,526.661377 
	C651.241150,525.955139 652.514709,523.040466 652.313660,518.167786 
	C649.518738,518.907410 647.397705,519.290588 645.419617,520.047363 
	C643.781616,520.674133 642.697815,522.107422 642.788086,523.941956 
	C642.874939,525.705872 644.160278,526.482056 646.550171,526.661377 
z"/>
<path fill="#000000" opacity="1.000000" stroke="none" 
	d="
M509.548462,507.984497 
	C510.915863,515.988281 510.182281,523.634888 510.090393,531.252930 
	C510.052307,534.406982 505.199951,535.586487 502.348297,533.312134 
	C501.606079,532.720215 501.651276,531.385559 500.210571,531.173828 
	C497.389069,532.845886 494.518524,534.861511 490.905365,535.188293 
	C484.914520,535.730164 480.228668,532.568848 478.958862,527.040283 
	C477.613556,521.182983 480.341339,515.753296 486.091217,513.990234 
	C490.309631,512.696777 494.760895,512.162903 500.017365,511.108093 
	C497.455231,506.504303 494.096008,507.171143 490.564178,507.936707 
	C488.645905,508.352600 486.720551,510.327087 484.653503,507.984802 
	C481.369385,504.263519 482.133545,501.297668 487.004791,500.129486 
	C491.206696,499.121796 495.447266,498.694397 499.830963,499.492340 
	C504.709167,500.380310 508.162231,502.586304 509.548462,507.984497 
M498.707031,519.066650 
	C496.516296,518.625732 494.431885,519.095093 492.505280,520.061890 
	C490.481262,521.077515 489.550751,522.924316 490.466492,525.012085 
	C491.505249,527.380310 493.794037,527.089661 495.585052,526.193665 
	C498.205963,524.882446 500.155975,522.889160 498.707031,519.066650 
z"/>
<path fill="#000000" opacity="1.000000" stroke="none" 
	d="
M403.011414,520.268860 
	C398.987732,520.506531 395.319672,519.601501 391.835358,521.062256 
	C393.808350,527.157959 394.828766,527.355713 409.250854,524.819397 
	C411.880951,531.294922 411.031525,533.048401 404.524628,534.514771 
	C396.959656,536.219543 389.629028,535.670288 384.271484,529.609924 
	C379.008026,523.656006 378.567444,516.394531 381.330261,508.989441 
	C384.298737,501.033051 393.195374,497.270111 402.486450,500.015778 
	C409.433105,502.068634 413.705475,509.752594 412.345764,517.496155 
	C412.031860,519.283813 411.259399,520.181702 409.476715,520.206543 
	C407.483612,520.234314 405.490326,520.249146 403.011414,520.268860 
M391.987549,510.524445 
	C392.536133,513.975037 395.319977,512.412781 397.085693,512.542908 
	C398.718292,512.663147 401.774048,513.641357 401.386993,510.316162 
	C401.091309,507.776154 398.651276,507.226044 396.317810,507.434326 
	C394.570923,507.590271 393.189331,508.468109 391.987549,510.524445 
z"/>
<path fill="#000000" opacity="1.000000" stroke="none" 
	d="
M490.048584,385.995544 
	C489.985199,377.361572 490.009613,369.224426 489.820404,361.092285 
	C489.732788,357.326294 491.177704,355.730438 495.041351,355.605408 
	C506.146179,355.246094 506.140442,355.138794 506.374512,366.115570 
	C506.593872,376.402191 506.683411,386.694214 507.102173,396.972748 
	C507.291473,401.619324 505.847168,403.452240 500.902466,403.315155 
	C490.012390,403.013184 490.005432,403.247406 490.028259,392.471405 
	C490.032471,390.479065 490.041931,388.486725 490.048584,385.995544 
z"/>
<path fill="#000000" opacity="1.000000" stroke="none" 
	d="
M531.946045,371.072876 
	C532.004211,380.390625 532.003052,389.219543 532.153198,398.045868 
	C532.218262,401.873901 530.661133,403.353668 526.758423,403.240295 
	C514.336243,402.879486 515.793945,404.388824 515.705444,392.252777 
	C515.637390,382.924896 515.829468,373.593109 515.625732,364.269196 
	C515.538940,360.295593 517.283752,359.060822 520.935852,358.856598 
	C531.906372,358.243225 531.950317,358.212463 531.946045,371.072876 
z"/>
<path fill="#000000" opacity="1.000000" stroke="none" 
	d="
M608.550049,490.544495 
	C609.876526,500.169189 609.201111,509.496918 609.447021,518.806091 
	C609.619080,525.321106 609.729248,525.617004 616.162720,525.573669 
	C618.494873,525.557983 620.850952,525.689697 623.153259,525.406128 
	C626.655396,524.974854 628.054810,526.408386 628.052734,529.830444 
	C628.050842,532.950562 627.230530,535.023438 623.579712,534.902771 
	C616.423096,534.666199 609.263916,534.485779 602.104370,534.373413 
	C599.419006,534.331238 598.732178,532.842224 598.738159,530.518066 
	C598.769470,518.354431 598.819702,506.190460 598.743164,494.027374 
	C598.722656,490.765015 600.141968,489.437836 603.276062,489.717896 
	C604.923584,489.865112 606.568115,490.046356 608.550049,490.544495 
z"/>
<path fill="#000000" opacity="1.000000" stroke="none" 
	d="
M449.506897,529.322510 
	C445.371002,522.982727 445.259521,516.442383 447.219116,509.862762 
	C450.057800,500.331543 464.659912,495.311615 472.969666,500.739868 
	C474.381287,501.662018 474.656128,502.745087 474.185455,504.099640 
	C473.538239,505.962097 472.712585,507.762573 471.891937,509.763855 
	C467.190002,509.697479 461.765869,505.236328 458.451447,511.629089 
	C456.459625,515.470886 456.007111,520.066467 458.748260,523.479492 
	C462.977905,528.745911 468.182953,524.256042 472.841797,523.476990 
	C475.698547,530.281006 474.438538,533.078857 467.956604,534.596313 
	C461.017181,536.220886 454.761993,535.134460 449.506897,529.322510 
z"/>
<path fill="#000000" opacity="1.000000" stroke="none" 
	d="
M425.050842,534.342896 
	C420.434692,534.892212 418.908508,532.876160 418.980499,528.918213 
	C419.113678,521.599121 419.017181,514.275818 419.151733,506.956757 
	C419.195129,504.594299 417.890869,501.430206 420.698608,500.163055 
	C423.717865,498.800476 426.917206,499.420074 429.088409,502.660828 
	C432.151428,501.408508 434.652374,499.225006 437.881775,499.035858 
	C439.961426,498.914093 443.121826,498.252991 442.838806,501.302277 
	C442.582550,504.062958 444.095703,508.463409 439.080627,509.259888 
	C430.848724,510.567291 430.157745,511.384827 430.170868,519.807129 
	C430.176056,523.134888 430.035614,526.470886 430.223938,529.788208 
	C430.423065,533.296692 428.900024,534.700684 425.050842,534.342896 
z"/>
<path fill="#000000" opacity="1.000000" stroke="none" 
	d="
M474.001709,403.255066 
	C464.988403,403.243164 464.967194,403.242828 465.103180,394.804626 
	C465.191162,389.342987 466.039856,383.885468 465.127106,378.417847 
	C465.021362,377.784454 464.957184,376.944733 465.275757,376.470978 
	C468.247162,372.052490 472.763794,374.461792 476.618347,374.104858 
	C479.096619,373.875397 481.259033,374.709869 481.248535,377.918152 
	C481.224609,385.216858 481.365723,392.518188 481.211426,399.813629 
	C481.106262,404.785004 477.069153,402.764801 474.001709,403.255066 
z"/>
</svg>